<svg xmlns="http://www.w3.org/2000/svg" xmlns:xlink="http://www.w3.org/1999/xlink" width="840" height="561.04"><rect width="840" height="561.04" rx="0" ry="0" class="a"/><svg height="521.04" viewBox="0 0 80 52.104" width="800" x="20" xmlns="http://www.w3.org/2000/svg" xmlns:xlink="http://www.w3.org/1999/xlink" y="20"><style>@keyframes t{0%{transform:translateX(0)}.09%{transform:translateX(-80px)}.1%{transform:translateX(-160px)}8.59%{transform:translateX(-240px)}12.27%{transform:translateX(-320px)}12.28%{transform:translateX(-400px)}12.87%{transform:translateX(-480px)}18.54%{transform:translateX(-560px)}23.1%{transform:translateX(-640px)}27.69%{transform:translateX(-720px)}32.25%{transform:translateX(-800px)}39.64%{transform:translateX(-880px)}45.02%{transform:translateX(-1040px)}45.24%{transform:translateX(-1120px)}49.77%{transform:translateX(-1200px)}49.79%{transform:translateX(-1280px)}54.33%{transform:translateX(-1360px)}58%{transform:translateX(-1440px)}58.01%{transform:translateX(-1520px)}58.23%{transform:translateX(-1600px)}63.9%{transform:translateX(-1680px)}67.55%{transform:translateX(-1760px)}68.13%{transform:translateX(-1840px)}68.7%{transform:translateX(-1920px)}69.28%{transform:translateX(-2000px)}69.85%{transform:translateX(-2080px)}70.43%{transform:translateX(-2160px)}71%{transform:translateX(-2240px)}71.57%{transform:translateX(-2320px)}72.14%{transform:translateX(-2400px)}72.72%{transform:translateX(-2480px)}73.29%{transform:translateX(-2560px)}73.86%{transform:translateX(-2640px)}74.43%{transform:translateX(-2720px)}75.01%{transform:translateX(-2800px)}75.58%{transform:translateX(-2880px)}75.83%{transform:translateX(-2960px)}75.84%{transform:translateX(-3040px)}76.07%{transform:translateX(-3120px)}81.73%{transform:translateX(-3200px)}84.32%{transform:translateX(-3280px)}90.23%{transform:translateX(-3440px)}93.97%{transform:translateX(-3520px)}94.22%{transform:translateX(-3600px)}99.64%{transform:translateX(-3680px)}to{transform:translateX(-3840px)}}.a{fill:#282d35}.c{fill:#b9c0cb;white-space:pre}.d,.e{font-weight:700}.d{fill:#a8cc8c;white-space:pre}.e{fill:#d290e4}.e,.f,.g{white-space:pre}.f{fill:#d290e3;font-weight:700}.g{fill:#d290e4}.h{fill:#d290e3}.h,.j,.k,.l{white-space:pre}.j{fill:#66c2cd;font-weight:700}.k,.l{fill:#a8cc8c}.l{fill:#b9c0cb;font-weight:700}.m,.o,.p,.q{fill:#73bef3;white-space:pre}.o,.p,.q{fill:#dbab79;font-weight:700}.p,.q{fill:#e88388}.q{fill:#73bef3}</style><g font-family="Monaco,Consolas,Menlo,'Bitstream Vera Sans Mono','Powerline Symbols',monospace" font-size="1.67"><defs><symbol id="1"><text y="1.67" class="c">╔══════════════════════════════════════════════════╗</text></symbol><symbol id="2"><text y="1.67" class="c">║</text><text x="8.016" y="1.67" class="c">kalpa</text><text x="14.028" y="1.67" class="c">—</text><text x="16.032" y="1.67" class="c">Time</text><text x="21.042" y="1.67" class="c">moves</text><text x="27.054" y="1.67" class="c">in</text><text x="30.06" y="1.67" class="c">cycles</text><text x="50.1" y="1.67" class="c">║</text></symbol><symbol id="3"><text y="1.67" class="c">║</text><text x="8.016" y="1.67" class="c">Local-first</text><text x="20.04" y="1.67" class="c">filesystem</text><text x="31.062" y="1.67" class="c">timeline</text><text x="40.08" y="1.67" class="c">engine</text><text x="50.1" y="1.67" class="c">║</text></symbol><symbol id="4"><text y="1.67" class="c">╚══════════════════════════════════════════════════╝</text></symbol><symbol id="5"><text y="1.67" class="c">🔍</text><text x="3.006" y="1.67" class="c">Starting</text><text x="12.024" y="1.67" class="c">to</text><text x="15.03" y="1.67" class="c">watch</text><text x="21.042" y="1.67" class="c">my-project...</text></symbol><symbol id="6"><text y="1.67" class="d">✓</text><text x="2.004" y="1.67" class="c">Watching</text><text x="11.022" y="1.67" class="e">/tmp/kalpa-demo-rec/</text><text x="31.062" y="1.67" class="f">my-project</text><text x="42.084" y="1.67" class="c">—</text><text x="44.088" y="1.67" class="c">timeline</text><text x="53.106" y="1.67" class="c">started.</text></symbol><symbol id="7"><text x="2.004" y="1.67" class="c">.kalpa/</text><text x="10.02" y="1.67" class="c">created</text><text x="18.036" y="1.67" class="c">at</text><text x="21.042" y="1.67" class="g">/tmp/kalpa-demo-rec/my-project/</text><text x="52.104" y="1.67" class="h">.kalpa</text></symbol><symbol id="8"><text x="2.004" y="1.67" class="c">Folder</text><text x="9.018" y="1.67" class="c">ID:</text><text x="13.026" y="1.67" style="white-space:pre" fill="#dbab79">7c13ce90-e771-425b-9523-c19747a85d75</text></symbol><symbol id="9"><text y="1.67" class="c">Background</text><text x="11.022" y="1.67" class="c">watcher</text><text x="19.038" y="1.67" class="c">PID:</text><text x="24.048" y="1.67" class="j">35570</text></symbol><symbol id="10"><text y="1.67" class="c">Use</text><text x="4.008" y="1.67" class="k">&apos;kalpa</text><text x="11.022" y="1.67" class="k">stop&apos;</text><text x="17.034" y="1.67" class="c">to</text><text x="20.04" y="1.67" class="c">stop.</text></symbol><symbol id="11"><text y="1.67" class="c">📝</text><text x="3.006" y="1.67" class="c">Creating</text><text x="12.024" y="1.67" class="c">auth</text><text x="17.034" y="1.67" class="c">module...</text></symbol><symbol id="12"><text y="1.67" class="c">📝</text><text x="3.006" y="1.67" class="c">Updating</text><text x="12.024" y="1.67" class="c">main</text><text x="17.034" y="1.67" class="c">module...</text></symbol><symbol id="13"><text y="1.67" class="c">📝</text><text x="3.006" y="1.67" class="c">Adding</text><text x="10.02" y="1.67" class="c">config</text><text x="17.034" y="1.67" class="c">file...</text></symbol><symbol id="14"><text y="1.67" class="c">💥</text><text x="3.006" y="1.67" class="c">OH</text><text x="6.012" y="1.67" class="c">NO!</text><text x="10.02" y="1.67" class="c">Accidentally</text><text x="23.046" y="1.67" class="c">deleted</text><text x="31.062" y="1.67" class="c">src/</text><text x="36.072" y="1.67" class="c">!</text></symbol><symbol id="15"><text y="1.67" class="c">🚀</text><text x="3.006" y="1.67" class="c">Running:</text><text x="12.024" y="1.67" class="c">kalpa</text><text x="18.036" y="1.67" class="c">undo</text></symbol><symbol id="16"><text y="1.67" class="d">Restored:</text><text x="10.02" y="1.67" class="j">1</text><text x="12.024" y="1.67" class="e">file</text><text x="16.032" y="1.67" class="l">(</text><text x="17.034" y="1.67" class="c">s</text><text x="18.036" y="1.67" class="l">)</text><text x="19.038" y="1.67" class="c">,</text><text x="21.042" y="1.67" class="j">0.0</text><text x="25.05" y="1.67" class="c">KB</text></symbol><symbol id="17"><text x="2.004" y="1.67" class="k">↩</text><text x="4.008" y="1.67" class="c">src/auth.py</text></symbol><symbol id="18"><text y="1.67" class="c">📂</text><text x="3.006" y="1.67" class="c">Checking</text><text x="12.024" y="1.67" class="c">if</text><text x="15.03" y="1.67" class="c">restored...</text></symbol><symbol id="19"><text y="1.67" class="c">auth.py</text></symbol><symbol id="20"><text y="1.67" class="c">📜</text><text x="3.006" y="1.67" class="c">Running:</text><text x="12.024" y="1.67" class="c">kalpa</text><text x="18.036" y="1.67" class="c">timeline</text></symbol><symbol id="21"><text y="1.67" class="m">╭──────────────────────────────────</text><text x="36.072" y="1.67" style="white-space:pre" fill="#71bef2" font-weight="700">Timeline</text><text x="45.09" y="1.67" class="m">──────────────────────────────────╮</text></symbol><symbol id="22"><text y="1.67" class="m">│</text><text x="79.158" y="1.67" class="m">│</text></symbol><symbol id="23"><text y="1.67" class="m">│</text><text x="4.008" y="1.67" class="d">+</text><text x="6.012" y="1.67" class="c">19:15:11</text><text x="16.032" y="1.67" class="d">create</text><text x="24.048" y="1.67" class="l">src/auth.py</text><text x="37.074" y="1.67" class="c">[30B]</text><text x="79.158" y="1.67" class="m">│</text></symbol><symbol id="24"><text y="1.67" class="m">│</text><text x="4.008" y="1.67" class="o">~</text><text x="6.012" y="1.67" class="c">19:15:11</text><text x="16.032" y="1.67" class="o">modify</text><text x="24.048" y="1.67" class="l">src/auth.py</text><text x="37.074" y="1.67" class="c">[30B]</text><text x="79.158" y="1.67" class="m">│</text></symbol><symbol id="25"><text y="1.67" class="m">│</text><text x="4.008" y="1.67" class="o">~</text><text x="6.012" y="1.67" class="c">19:15:12</text><text x="16.032" y="1.67" class="o">modify</text><text x="24.048" y="1.67" class="l">src/main.py</text><text x="37.074" y="1.67" class="c">[45B]</text><text x="79.158" y="1.67" class="m">│</text></symbol><symbol id="26"><text y="1.67" class="m">│</text><text x="4.008" y="1.67" class="d">+</text><text x="6.012" y="1.67" class="c">19:15:12</text><text x="16.032" y="1.67" class="d">create</text><text x="24.048" y="1.67" class="l">.env</text><text x="30.06" y="1.67" class="c">[11B]</text><text x="79.158" y="1.67" class="m">│</text></symbol><symbol id="27"><text y="1.67" class="m">│</text><text x="4.008" y="1.67" class="o">~</text><text x="6.012" y="1.67" class="c">19:15:12</text><text x="16.032" y="1.67" class="o">modify</text><text x="24.048" y="1.67" class="l">.env</text><text x="30.06" y="1.67" class="c">[11B]</text><text x="79.158" y="1.67" class="m">│</text></symbol><symbol id="28"><text y="1.67" class="m">│</text><text x="4.008" y="1.67" class="p">-</text><text x="6.012" y="1.67" class="c">19:15:14</text><text x="16.032" y="1.67" class="p">delete</text><text x="24.048" y="1.67" class="l">src/auth.py</text><text x="79.158" y="1.67" class="m">│</text></symbol><symbol id="29"><text y="1.67" class="m">╰──────────────────────────────────────────────────────────────────────────────╯</text></symbol><symbol id="30"><text y="1.67" class="c">Showing</text><text x="8.016" y="1.67" class="j">6</text><text x="10.02" y="1.67" class="c">of</text><text x="13.026" y="1.67" class="j">6</text><text x="15.03" y="1.67" class="c">events</text></symbol><symbol id="31"><text y="1.67" class="c">🎬</text><text x="3.006" y="1.67" class="c">Running:</text><text x="12.024" y="1.67" class="c">kalpa</text><text x="18.036" y="1.67" class="c">replay</text><text x="25.05" y="1.67" class="c">--speed</text><text x="33.066" y="1.67" class="c">2x</text></symbol><symbol id="32"><text y="1.67" class="m">╭───────────────────────────</text><text x="29.058" y="1.67" class="q">⏱</text><text x="31.062" y="1.67" class="q">19:15:11</text><text x="41.082" y="1.67" class="m">frame</text><text x="47.094" y="1.67" class="m">1/4</text><text x="51.102" y="1.67" class="m">────────────────────────────╮</text></symbol><symbol id="33"><text y="1.67" class="m">│</text><text x="4.008" y="1.67" class="d">+</text><text x="6.012" y="1.67" class="l">src/auth.py</text><text x="19.038" y="1.67" class="c">[30B]</text><text x="79.158" y="1.67" class="m">│</text></symbol><symbol id="34"><text y="1.67" class="m">│</text><text x="4.008" y="1.67" class="o">~</text><text x="6.012" y="1.67" class="l">src/auth.py</text><text x="19.038" y="1.67" class="c">[30B]</text><text x="79.158" y="1.67" class="m">│</text></symbol><symbol id="35"><text y="1.67" class="m">╭───────────────────────────</text><text x="29.058" y="1.67" class="q">⏱</text><text x="31.062" y="1.67" class="q">19:15:12</text><text x="41.082" y="1.67" class="m">frame</text><text x="47.094" y="1.67" class="m">2/4</text><text x="51.102" y="1.67" class="m">────────────────────────────╮</text></symbol><symbol id="36"><text y="1.67" class="m">│</text><text x="4.008" y="1.67" class="o">~</text><text x="6.012" y="1.67" class="l">src/main.py</text><text x="19.038" y="1.67" class="c">[45B]</text><text x="79.158" y="1.67" class="m">│</text></symbol><symbol id="37"><text y="1.67" class="m">╭───────────────────────────</text><text x="29.058" y="1.67" class="q">⏱</text><text x="31.062" y="1.67" class="q">19:15:12</text><text x="41.082" y="1.67" class="m">frame</text><text x="47.094" y="1.67" class="m">3/4</text><text x="51.102" y="1.67" class="m">────────────────────────────╮</text></symbol><symbol id="38"><text y="1.67" class="m">│</text><text x="4.008" y="1.67" class="d">+</text><text x="6.012" y="1.67" class="l">.env</text><text x="12.024" y="1.67" class="c">[11B]</text><text x="79.158" y="1.67" class="m">│</text></symbol><symbol id="39"><text y="1.67" class="m">│</text><text x="4.008" y="1.67" class="o">~</text><text x="6.012" y="1.67" class="l">.env</text><text x="12.024" y="1.67" class="c">[11B]</text><text x="79.158" y="1.67" class="m">│</text></symbol><symbol id="40"><text y="1.67" class="d">Replay</text><text x="7.014" y="1.67" class="d">complete.</text><text x="17.034" y="1.67" class="j">4</text><text x="19.038" y="1.67" class="c">frames</text><text x="26.052" y="1.67" class="c">played</text></symbol><symbol id="41"><text y="1.67" class="c">📊</text><text x="3.006" y="1.67" class="c">Running:</text><text x="12.024" y="1.67" class="c">kalpa</text><text x="18.036" y="1.67" class="c">status</text></symbol><symbol id="42"><text y="1.67" class="k">╭────────────────────────────────</text><text x="34.068" y="1.67" class="d">Kalpa</text><text x="40.08" y="1.67" class="d">Status</text><text x="47.094" y="1.67" class="k">────────────────────────────────╮</text></symbol><symbol id="43"><text y="1.67" class="k">│</text><text x="79.158" y="1.67" class="k">│</text></symbol><symbol id="44"><text y="1.67" class="k">│</text><text x="3.006" y="1.67" class="l">Watching:</text><text x="16.032" y="1.67" class="c">/tmp/kalpa-demo-rec/my-project</text><text x="79.158" y="1.67" class="k">│</text></symbol><symbol id="45"><text y="1.67" class="k">│</text><text x="3.006" y="1.67" class="l">PID:</text><text x="16.032" y="1.67" class="c">35570</text><text x="79.158" y="1.67" class="k">│</text></symbol><symbol id="46"><text y="1.67" class="k">│</text><text x="3.006" y="1.67" class="l">Events:</text><text x="16.032" y="1.67" class="c">6</text><text x="79.158" y="1.67" class="k">│</text></symbol><symbol id="47"><text y="1.67" class="k">│</text><text x="3.006" y="1.67" class="l">Storage:</text><text x="16.032" y="1.67" class="c">0.1</text><text x="20.04" y="1.67" class="c">KB</text><text x="79.158" y="1.67" class="k">│</text></symbol><symbol id="48"><text y="1.67" class="k">│</text><text x="3.006" y="1.67" class="l">Since:</text><text x="16.032" y="1.67" class="c">2026-05-25</text><text x="27.054" y="1.67" class="c">19:15:11</text><text x="79.158" y="1.67" class="k">│</text></symbol><symbol id="49"><text y="1.67" class="k">│</text><text x="3.006" y="1.67" class="l">Last</text><text x="8.016" y="1.67" class="l">event:</text><text x="16.032" y="1.67" class="c">delete</text><text x="23.046" y="1.67" class="c">src/auth.py</text><text x="79.158" y="1.67" class="k">│</text></symbol><symbol id="50"><text y="1.67" class="k">╰──────────────────────────────────────────────────────────────────────────────╯</text></symbol><symbol id="51"><text y="1.67" class="c">🔄</text><text x="3.006" y="1.67" class="c">Running:</text><text x="12.024" y="1.67" class="c">kalpa</text><text x="18.036" y="1.67" class="c">fork</text><text x="23.046" y="1.67" class="c">--from</text><text x="30.06" y="1.67" class="c">&apos;30</text><text x="34.068" y="1.67" class="c">seconds</text><text x="42.084" y="1.67" class="c">ago&apos;</text></symbol><symbol id="52"><text y="1.67" class="d">✓</text><text x="2.004" y="1.67" class="c">Forked:</text><text x="10.02" y="1.67" class="e">/tmp/kalpa-demo-rec/</text><text x="30.06" y="1.67" class="f">my-project</text><text x="41.082" y="1.67" class="c">→</text></symbol><symbol id="53"><text y="1.67" class="e">/tmp/kalpa-demo-rec/</text><text x="20.04" y="1.67" class="f">my-project_fork_20260525_191454</text></symbol><symbol id="54"><text y="1.67" class="k">Stopped</text><text x="8.016" y="1.67" class="k">watching:</text><text x="18.036" y="1.67" class="g">/tmp/kalpa-demo-rec/</text><text x="38.076" y="1.67" class="h">my-project</text></symbol><symbol id="a"><path fill="transparent" d="M0 0h80v25H0z"/></symbol><symbol id="b"><path fill="#6f7683" d="M0 0h1.102v2.171H0z"/></symbol></defs><path class="a" d="M0 0h80v52.104H0z"/><g style="animation-duration:17.704418s;animation-iteration-count:infinite;animation-name:t;animation-timing-function:steps(1,end)"><svg width="3920"><svg><use xlink:href="#a"/><use xlink:href="#b" x="-.004"/></svg><svg x="80"><use xlink:href="#a"/><use xlink:href="#b" x="-.004"/></svg><svg x="160"><use xlink:href="#a"/><use xlink:href="#b" x="-.004" y="10.83"/><use xlink:href="#1"/><use xlink:href="#2" y="2.171"/><use xlink:href="#3" y="4.342"/><use xlink:href="#4" y="6.513"/></svg><svg x="240"><use xlink:href="#a"/><use xlink:href="#b" x="-.004" y="13.001"/><use xlink:href="#1"/><use xlink:href="#2" y="2.171"/><use xlink:href="#3" y="4.342"/><use xlink:href="#4" y="6.513"/><use xlink:href="#5" y="10.855"/></svg><svg x="320"><use xlink:href="#a"/><use xlink:href="#b" x="-.004" y="19.514"/><use xlink:href="#1"/><use xlink:href="#2" y="2.171"/><use xlink:href="#3" y="4.342"/><use xlink:href="#4" y="6.513"/><use xlink:href="#5" y="10.855"/><use xlink:href="#6" y="13.026"/><use xlink:href="#7" y="15.197"/><use xlink:href="#8" y="17.368"/></svg><svg x="400"><use xlink:href="#a"/><use xlink:href="#b" x="-.004" y="23.856"/><use xlink:href="#1"/><use xlink:href="#2" y="2.171"/><use xlink:href="#3" y="4.342"/><use xlink:href="#4" y="6.513"/><use xlink:href="#5" y="10.855"/><use xlink:href="#6" y="13.026"/><use xlink:href="#7" y="15.197"/><use xlink:href="#8" y="17.368"/><use xlink:href="#9" y="19.539"/><use xlink:href="#10" y="21.71"/></svg><svg x="480"><use xlink:href="#a"/><use xlink:href="#b" x="-.004" y="26.027"/><use xlink:href="#1"/><use xlink:href="#2" y="2.171"/><use xlink:href="#3" y="4.342"/><use xlink:href="#4" y="6.513"/><use xlink:href="#5" y="10.855"/><use xlink:href="#6" y="13.026"/><use xlink:href="#7" y="15.197"/><use xlink:href="#8" y="17.368"/><use xlink:href="#9" y="19.539"/><use xlink:href="#10" y="21.71"/></svg><svg x="560"><use xlink:href="#a"/><use xlink:href="#b" x="-.004" y="28.198"/><use xlink:href="#1"/><use xlink:href="#2" y="2.171"/><use xlink:href="#3" y="4.342"/><use xlink:href="#4" y="6.513"/><use xlink:href="#5" y="10.855"/><use xlink:href="#6" y="13.026"/><use xlink:href="#7" y="15.197"/><use xlink:href="#8" y="17.368"/><use xlink:href="#9" y="19.539"/><use xlink:href="#10" y="21.71"/><use xlink:href="#11" y="26.052"/></svg><svg x="640"><use xlink:href="#a"/><use xlink:href="#b" x="-.004" y="30.369"/><use xlink:href="#1"/><use xlink:href="#2" y="2.171"/><use xlink:href="#3" y="4.342"/><use xlink:href="#4" y="6.513"/><use xlink:href="#5" y="10.855"/><use xlink:href="#6" y="13.026"/><use xlink:href="#7" y="15.197"/><use xlink:href="#8" y="17.368"/><use xlink:href="#9" y="19.539"/><use xlink:href="#10" y="21.71"/><use xlink:href="#11" y="26.052"/><use xlink:href="#12" y="28.223"/></svg><svg x="720"><use xlink:href="#a"/><use xlink:href="#b" x="-.004" y="32.54"/><use xlink:href="#1"/><use xlink:href="#2" y="2.171"/><use xlink:href="#3" y="4.342"/><use xlink:href="#4" y="6.513"/><use xlink:href="#5" y="10.855"/><use xlink:href="#6" y="13.026"/><use xlink:href="#7" y="15.197"/><use xlink:href="#8" y="17.368"/><use xlink:href="#9" y="19.539"/><use xlink:href="#10" y="21.71"/><use xlink:href="#11" y="26.052"/><use xlink:href="#12" y="28.223"/><use xlink:href="#13" y="30.394"/></svg><svg x="800"><use xlink:href="#a"/><use xlink:href="#b" x="-.004" y="36.882"/><use xlink:href="#1"/><use xlink:href="#2" y="2.171"/><use xlink:href="#3" y="4.342"/><use xlink:href="#4" y="6.513"/><use xlink:href="#5" y="10.855"/><use xlink:href="#6" y="13.026"/><use xlink:href="#7" y="15.197"/><use xlink:href="#8" y="17.368"/><use xlink:href="#9" y="19.539"/><use xlink:href="#10" y="21.71"/><use xlink:href="#11" y="26.052"/><use xlink:href="#12" y="28.223"/><use xlink:href="#13" y="30.394"/><use xlink:href="#14" y="34.736"/></svg><svg x="880"><use xlink:href="#a"/><use xlink:href="#b" x="-.004" y="41.224"/><use xlink:href="#1"/><use xlink:href="#2" y="2.171"/><use xlink:href="#3" y="4.342"/><use xlink:href="#4" y="6.513"/><use xlink:href="#5" y="10.855"/><use xlink:href="#6" y="13.026"/><use xlink:href="#7" y="15.197"/><use xlink:href="#8" y="17.368"/><use xlink:href="#9" y="19.539"/><use xlink:href="#10" y="21.71"/><use xlink:href="#11" y="26.052"/><use xlink:href="#12" y="28.223"/><use xlink:href="#13" y="30.394"/><use xlink:href="#14" y="34.736"/><use xlink:href="#15" y="39.078"/></svg><svg x="960"><use xlink:href="#a"/><use xlink:href="#b" x="-.004" y="43.395"/><use xlink:href="#1"/><use xlink:href="#2" y="2.171"/><use xlink:href="#3" y="4.342"/><use xlink:href="#4" y="6.513"/><use xlink:href="#5" y="10.855"/><use xlink:href="#6" y="13.026"/><use xlink:href="#7" y="15.197"/><use xlink:href="#8" y="17.368"/><use xlink:href="#9" y="19.539"/><use xlink:href="#10" y="21.71"/><use xlink:href="#11" y="26.052"/><use xlink:href="#12" y="28.223"/><use xlink:href="#13" y="30.394"/><use xlink:href="#14" y="34.736"/><use xlink:href="#15" y="39.078"/><use xlink:href="#16" y="41.249"/></svg><svg x="1040"><use xlink:href="#a"/><use xlink:href="#b" x="-.004" y="45.566"/><use xlink:href="#1"/><use xlink:href="#2" y="2.171"/><use xlink:href="#3" y="4.342"/><use xlink:href="#4" y="6.513"/><use xlink:href="#5" y="10.855"/><use xlink:href="#6" y="13.026"/><use xlink:href="#7" y="15.197"/><use xlink:href="#8" y="17.368"/><use xlink:href="#9" y="19.539"/><use xlink:href="#10" y="21.71"/><use xlink:href="#11" y="26.052"/><use xlink:href="#12" y="28.223"/><use xlink:href="#13" y="30.394"/><use xlink:href="#14" y="34.736"/><use xlink:href="#15" y="39.078"/><use xlink:href="#16" y="41.249"/><use xlink:href="#17" y="43.42"/></svg><svg x="1120"><use xlink:href="#a"/><use xlink:href="#b" x="-.004" y="47.737"/><use xlink:href="#1"/><use xlink:href="#2" y="2.171"/><use xlink:href="#3" y="4.342"/><use xlink:href="#4" y="6.513"/><use xlink:href="#5" y="10.855"/><use xlink:href="#6" y="13.026"/><use xlink:href="#7" y="15.197"/><use xlink:href="#8" y="17.368"/><use xlink:href="#9" y="19.539"/><use xlink:href="#10" y="21.71"/><use xlink:href="#11" y="26.052"/><use xlink:href="#12" y="28.223"/><use xlink:href="#13" y="30.394"/><use xlink:href="#14" y="34.736"/><use xlink:href="#15" y="39.078"/><use xlink:href="#16" y="41.249"/><use xlink:href="#17" y="43.42"/></svg><svg x="1200"><use xlink:href="#a"/><use xlink:href="#b" x="-.004" y="49.908"/><use xlink:href="#1"/><use xlink:href="#2" y="2.171"/><use xlink:href="#3" y="4.342"/><use xlink:href="#4" y="6.513"/><use xlink:href="#5" y="10.855"/><use xlink:href="#6" y="13.026"/><use xlink:href="#7" y="15.197"/><use xlink:href="#8" y="17.368"/><use xlink:href="#9" y="19.539"/><use xlink:href="#10" y="21.71"/><use xlink:href="#11" y="26.052"/><use xlink:href="#12" y="28.223"/><use xlink:href="#13" y="30.394"/><use xlink:href="#14" y="34.736"/><use xlink:href="#15" y="39.078"/><use xlink:href="#16" y="41.249"/><use xlink:href="#17" y="43.42"/><use xlink:href="#18" y="47.762"/></svg><svg x="1280"><use xlink:href="#a"/><use xlink:href="#b" x="-.004" y="52.079"/><use xlink:href="#1"/><use xlink:href="#2" y="2.171"/><use xlink:href="#3" y="4.342"/><use xlink:href="#4" y="6.513"/><use xlink:href="#5" y="10.855"/><use xlink:href="#6" y="13.026"/><use xlink:href="#7" y="15.197"/><use xlink:href="#8" y="17.368"/><use xlink:href="#9" y="19.539"/><use xlink:href="#10" y="21.71"/><use xlink:href="#11" y="26.052"/><use xlink:href="#12" y="28.223"/><use xlink:href="#13" y="30.394"/><use xlink:href="#14" y="34.736"/><use xlink:href="#15" y="39.078"/><use xlink:href="#16" y="41.249"/><use xlink:href="#17" y="43.42"/><use xlink:href="#18" y="47.762"/><use xlink:href="#19" y="49.933"/></svg><svg x="1360"><use xlink:href="#a"/><use xlink:href="#b" x="-.004" y="52.079"/><use xlink:href="#3"/><use xlink:href="#4" y="2.171"/><use xlink:href="#5" y="6.513"/><use xlink:href="#6" y="8.684"/><use xlink:href="#7" y="10.855"/><use xlink:href="#8" y="13.026"/><use xlink:href="#9" y="15.197"/><use xlink:href="#10" y="17.368"/><use xlink:href="#11" y="21.71"/><use xlink:href="#12" y="23.881"/><use xlink:href="#13" y="26.052"/><use xlink:href="#14" y="30.394"/><use xlink:href="#15" y="34.736"/><use xlink:href="#16" y="36.907"/><use xlink:href="#17" y="39.078"/><use xlink:href="#18" y="43.42"/><use xlink:href="#19" y="45.591"/><use xlink:href="#20" y="49.933"/></svg><svg x="1440"><use xlink:href="#a"/><use xlink:href="#b" x="-.004" y="52.079"/><use xlink:href="#11"/><use xlink:href="#12" y="2.171"/><use xlink:href="#13" y="4.342"/><use xlink:href="#14" y="8.684"/><use xlink:href="#15" y="13.026"/><use xlink:href="#16" y="15.197"/><use xlink:href="#17" y="17.368"/><use xlink:href="#18" y="21.71"/><use xlink:href="#19" y="23.881"/><use xlink:href="#20" y="28.223"/><use xlink:href="#21" y="30.394"/><use xlink:href="#22" y="32.565"/><use xlink:href="#23" y="34.736"/><use xlink:href="#24" y="36.907"/><use xlink:href="#25" y="39.078"/><use xlink:href="#26" y="41.249"/><use xlink:href="#27" y="43.42"/><use xlink:href="#28" y="45.591"/><use xlink:href="#22" y="47.762"/><use xlink:href="#29" y="49.933"/></svg><svg x="1520"><use xlink:href="#a"/><use xlink:href="#b" x="-.004" y="52.079"/><use xlink:href="#13"/><use xlink:href="#14" y="4.342"/><use xlink:href="#15" y="8.684"/><use xlink:href="#16" y="10.855"/><use xlink:href="#17" y="13.026"/><use xlink:href="#18" y="17.368"/><use xlink:href="#19" y="19.539"/><use xlink:href="#20" y="23.881"/><use xlink:href="#21" y="26.052"/><use xlink:href="#22" y="28.223"/><use xlink:href="#23" y="30.394"/><use xlink:href="#24" y="32.565"/><use xlink:href="#25" y="34.736"/><use xlink:href="#26" y="36.907"/><use xlink:href="#27" y="39.078"/><use xlink:href="#28" y="41.249"/><use xlink:href="#22" y="43.42"/><use xlink:href="#29" y="45.591"/><use xlink:href="#30" y="49.933"/></svg><svg x="1600"><use xlink:href="#a"/><use xlink:href="#b" x="-.004" y="52.079"/><use xlink:href="#14" y="2.171"/><use xlink:href="#15" y="6.513"/><use xlink:href="#16" y="8.684"/><use xlink:href="#17" y="10.855"/><use xlink:href="#18" y="15.197"/><use xlink:href="#19" y="17.368"/><use xlink:href="#20" y="21.71"/><use xlink:href="#21" y="23.881"/><use xlink:href="#22" y="26.052"/><use xlink:href="#23" y="28.223"/><use xlink:href="#24" y="30.394"/><use xlink:href="#25" y="32.565"/><use xlink:href="#26" y="34.736"/><use xlink:href="#27" y="36.907"/><use xlink:href="#28" y="39.078"/><use xlink:href="#22" y="41.249"/><use xlink:href="#29" y="43.42"/><use xlink:href="#30" y="47.762"/></svg><svg x="1680"><use xlink:href="#a"/><use xlink:href="#b" x="-.004" y="52.079"/><use xlink:href="#14"/><use xlink:href="#15" y="4.342"/><use xlink:href="#16" y="6.513"/><use xlink:href="#17" y="8.684"/><use xlink:href="#18" y="13.026"/><use xlink:href="#19" y="15.197"/><use xlink:href="#20" y="19.539"/><use xlink:href="#21" y="21.71"/><use xlink:href="#22" y="23.881"/><use xlink:href="#23" y="26.052"/><use xlink:href="#24" y="28.223"/><use xlink:href="#25" y="30.394"/><use xlink:href="#26" y="32.565"/><use xlink:href="#27" y="34.736"/><use xlink:href="#28" y="36.907"/><use xlink:href="#22" y="39.078"/><use xlink:href="#29" y="41.249"/><use xlink:href="#30" y="45.591"/><use xlink:href="#31" y="49.933"/></svg><svg x="1760"><use xlink:href="#a"/></svg><svg x="1840"><use xlink:href="#a"/><use xlink:href="#32"/><use xlink:href="#22" y="2.171"/><use xlink:href="#33" y="4.342"/><use xlink:href="#34" y="6.513"/><use xlink:href="#22" y="8.684"/><use xlink:href="#29" y="10.855"/></svg><svg x="1920"><use xlink:href="#a"/><use xlink:href="#32"/><use xlink:href="#22" y="2.171"/><use xlink:href="#33" y="4.342"/><use xlink:href="#34" y="6.513"/><use xlink:href="#22" y="8.684"/><use xlink:href="#29" y="10.855"/></svg><svg x="2000"><use xlink:href="#a"/><use xlink:href="#32"/><use xlink:href="#22" y="2.171"/><use xlink:href="#33" y="4.342"/><use xlink:href="#34" y="6.513"/><use xlink:href="#22" y="8.684"/><use xlink:href="#29" y="10.855"/></svg><svg x="2080"><use xlink:href="#a"/><use xlink:href="#35"/><use xlink:href="#22" y="2.171"/><use xlink:href="#36" y="4.342"/><use xlink:href="#22" y="6.513"/><use xlink:href="#29" y="8.684"/></svg><svg x="2160"><use xlink:href="#a"/><use xlink:href="#35"/><use xlink:href="#22" y="2.171"/><use xlink:href="#36" y="4.342"/><use xlink:href="#22" y="6.513"/><use xlink:href="#29" y="8.684"/></svg><svg x="2240"><use xlink:href="#a"/><use xlink:href="#35"/><use xlink:href="#22" y="2.171"/><use xlink:href="#36" y="4.342"/><use xlink:href="#22" y="6.513"/><use xlink:href="#29" y="8.684"/></svg><svg x="2320"><use xlink:href="#a"/><use xlink:href="#35"/><use xlink:href="#22" y="2.171"/><use xlink:href="#36" y="4.342"/><use xlink:href="#22" y="6.513"/><use xlink:href="#29" y="8.684"/></svg><svg x="2400"><use xlink:href="#a"/><use xlink:href="#37"/><use xlink:href="#22" y="2.171"/><use xlink:href="#38" y="4.342"/><use xlink:href="#39" y="6.513"/><use xlink:href="#22" y="8.684"/><use xlink:href="#29" y="10.855"/></svg><svg x="2480"><use xlink:href="#a"/><use xlink:href="#37"/><use xlink:href="#22" y="2.171"/><use xlink:href="#38" y="4.342"/><use xlink:href="#39" y="6.513"/><use xlink:href="#22" y="8.684"/><use xlink:href="#29" y="10.855"/></svg><svg x="2560"><use xlink:href="#a"/><use xlink:href="#37"/><use xlink:href="#22" y="2.171"/><use xlink:href="#38" y="4.342"/><use xlink:href="#39" y="6.513"/><use xlink:href="#22" y="8.684"/><use xlink:href="#29" y="10.855"/></svg><svg x="2640"><use xlink:href="#a"/><use xlink:href="#37"/><use xlink:href="#22" y="2.171"/><use xlink:href="#38" y="4.342"/><use xlink:href="#39" y="6.513"/><use xlink:href="#22" y="8.684"/><use xlink:href="#29" y="10.855"/></svg><svg x="2720"><use xlink:href="#a"/><use xlink:href="#37"/><use xlink:href="#22" y="2.171"/><use xlink:href="#38" y="4.342"/><use xlink:href="#39" y="6.513"/><use xlink:href="#22" y="8.684"/><use xlink:href="#29" y="10.855"/></svg><svg x="2800"><use xlink:href="#a"/><use xlink:href="#37"/><use xlink:href="#22" y="2.171"/><use xlink:href="#38" y="4.342"/><use xlink:href="#39" y="6.513"/><use xlink:href="#22" y="8.684"/><use xlink:href="#29" y="10.855"/></svg><svg x="2880"><use xlink:href="#a"/><use xlink:href="#37"/><use xlink:href="#22" y="2.171"/><use xlink:href="#38" y="4.342"/><use xlink:href="#39" y="6.513"/><use xlink:href="#22" y="8.684"/><use xlink:href="#29" y="10.855"/></svg><svg x="2960"><use xlink:href="#a"/><use xlink:href="#b" x="-.004" y="52.079"/><use xlink:href="#14"/><use xlink:href="#15" y="4.342"/><use xlink:href="#16" y="6.513"/><use xlink:href="#17" y="8.684"/><use xlink:href="#18" y="13.026"/><use xlink:href="#19" y="15.197"/><use xlink:href="#20" y="19.539"/><use xlink:href="#21" y="21.71"/><use xlink:href="#22" y="23.881"/><use xlink:href="#23" y="26.052"/><use xlink:href="#24" y="28.223"/><use xlink:href="#25" y="30.394"/><use xlink:href="#26" y="32.565"/><use xlink:href="#27" y="34.736"/><use xlink:href="#28" y="36.907"/><use xlink:href="#22" y="39.078"/><use xlink:href="#29" y="41.249"/><use xlink:href="#30" y="45.591"/><use xlink:href="#31" y="49.933"/></svg><svg x="3040"><use xlink:href="#a"/><use xlink:href="#b" x="-.004" y="52.079"/><use xlink:href="#15"/><use xlink:href="#16" y="2.171"/><use xlink:href="#17" y="4.342"/><use xlink:href="#18" y="8.684"/><use xlink:href="#19" y="10.855"/><use xlink:href="#20" y="15.197"/><use xlink:href="#21" y="17.368"/><use xlink:href="#22" y="19.539"/><use xlink:href="#23" y="21.71"/><use xlink:href="#24" y="23.881"/><use xlink:href="#25" y="26.052"/><use xlink:href="#26" y="28.223"/><use xlink:href="#27" y="30.394"/><use xlink:href="#28" y="32.565"/><use xlink:href="#22" y="34.736"/><use xlink:href="#29" y="36.907"/><use xlink:href="#30" y="41.249"/><use xlink:href="#31" y="45.591"/><use xlink:href="#40" y="49.933"/></svg><svg x="3120"><use xlink:href="#a"/><use xlink:href="#b" x="-.004" y="52.079"/><use xlink:href="#16"/><use xlink:href="#17" y="2.171"/><use xlink:href="#18" y="6.513"/><use xlink:href="#19" y="8.684"/><use xlink:href="#20" y="13.026"/><use xlink:href="#21" y="15.197"/><use xlink:href="#22" y="17.368"/><use xlink:href="#23" y="19.539"/><use xlink:href="#24" y="21.71"/><use xlink:href="#25" y="23.881"/><use xlink:href="#26" y="26.052"/><use xlink:href="#27" y="28.223"/><use xlink:href="#28" y="30.394"/><use xlink:href="#22" y="32.565"/><use xlink:href="#29" y="34.736"/><use xlink:href="#30" y="39.078"/><use xlink:href="#31" y="43.42"/><use xlink:href="#40" y="47.762"/></svg><svg x="3200"><use xlink:href="#a"/><use xlink:href="#b" x="-.004" y="52.079"/><use xlink:href="#18" y="2.171"/><use xlink:href="#19" y="4.342"/><use xlink:href="#20" y="8.684"/><use xlink:href="#21" y="10.855"/><use xlink:href="#22" y="13.026"/><use xlink:href="#23" y="15.197"/><use xlink:href="#24" y="17.368"/><use xlink:href="#25" y="19.539"/><use xlink:href="#26" y="21.71"/><use xlink:href="#27" y="23.881"/><use xlink:href="#28" y="26.052"/><use xlink:href="#22" y="28.223"/><use xlink:href="#29" y="30.394"/><use xlink:href="#30" y="34.736"/><use xlink:href="#31" y="39.078"/><use xlink:href="#40" y="43.42"/><use xlink:href="#41" y="49.933"/></svg><svg x="3280"><use xlink:href="#a"/><use xlink:href="#b" x="-.004" y="52.079"/><use xlink:href="#26"/><use xlink:href="#27" y="2.171"/><use xlink:href="#28" y="4.342"/><use xlink:href="#22" y="6.513"/><use xlink:href="#29" y="8.684"/><use xlink:href="#30" y="13.026"/><use xlink:href="#31" y="17.368"/><use xlink:href="#40" y="21.71"/><use xlink:href="#41" y="28.223"/><use xlink:href="#42" y="30.394"/><use xlink:href="#43" y="32.565"/><use xlink:href="#44" y="34.736"/><use xlink:href="#45" y="36.907"/><use xlink:href="#46" y="39.078"/><use xlink:href="#47" y="41.249"/><use xlink:href="#48" y="43.42"/><use xlink:href="#49" y="45.591"/><use xlink:href="#43" y="47.762"/><use xlink:href="#50" y="49.933"/></svg><svg x="3360"><use xlink:href="#a"/><use xlink:href="#b" x="-.004" y="52.079"/><use xlink:href="#27"/><use xlink:href="#28" y="2.171"/><use xlink:href="#22" y="4.342"/><use xlink:href="#29" y="6.513"/><use xlink:href="#30" y="10.855"/><use xlink:href="#31" y="15.197"/><use xlink:href="#40" y="19.539"/><use xlink:href="#41" y="26.052"/><use xlink:href="#42" y="28.223"/><use xlink:href="#43" y="30.394"/><use xlink:href="#44" y="32.565"/><use xlink:href="#45" y="34.736"/><use xlink:href="#46" y="36.907"/><use xlink:href="#47" y="39.078"/><use xlink:href="#48" y="41.249"/><use xlink:href="#49" y="43.42"/><use xlink:href="#43" y="45.591"/><use xlink:href="#50" y="47.762"/></svg><svg x="3440"><use xlink:href="#a"/><use xlink:href="#b" x="-.004" y="52.079"/><use xlink:href="#28"/><use xlink:href="#22" y="2.171"/><use xlink:href="#29" y="4.342"/><use xlink:href="#30" y="8.684"/><use xlink:href="#31" y="13.026"/><use xlink:href="#40" y="17.368"/><use xlink:href="#41" y="23.881"/><use xlink:href="#42" y="26.052"/><use xlink:href="#43" y="28.223"/><use xlink:href="#44" y="30.394"/><use xlink:href="#45" y="32.565"/><use xlink:href="#46" y="34.736"/><use xlink:href="#47" y="36.907"/><use xlink:href="#48" y="39.078"/><use xlink:href="#49" y="41.249"/><use xlink:href="#43" y="43.42"/><use xlink:href="#50" y="45.591"/><use xlink:href="#51" y="49.933"/></svg><svg x="3520"><use xlink:href="#a"/><use xlink:href="#b" x="-.004" y="52.079"/><use xlink:href="#29"/><use xlink:href="#30" y="4.342"/><use xlink:href="#31" y="8.684"/><use xlink:href="#40" y="13.026"/><use xlink:href="#41" y="19.539"/><use xlink:href="#42" y="21.71"/><use xlink:href="#43" y="23.881"/><use xlink:href="#44" y="26.052"/><use xlink:href="#45" y="28.223"/><use xlink:href="#46" y="30.394"/><use xlink:href="#47" y="32.565"/><use xlink:href="#48" y="34.736"/><use xlink:href="#49" y="36.907"/><use xlink:href="#43" y="39.078"/><use xlink:href="#50" y="41.249"/><use xlink:href="#51" y="45.591"/><use xlink:href="#52" y="47.762"/><use xlink:href="#53" y="49.933"/></svg><svg x="3600"><use xlink:href="#a"/><use xlink:href="#b" x="-.004" y="52.079"/><use xlink:href="#30" y="2.171"/><use xlink:href="#31" y="6.513"/><use xlink:href="#40" y="10.855"/><use xlink:href="#41" y="17.368"/><use xlink:href="#42" y="19.539"/><use xlink:href="#43" y="21.71"/><use xlink:href="#44" y="23.881"/><use xlink:href="#45" y="26.052"/><use xlink:href="#46" y="28.223"/><use xlink:href="#47" y="30.394"/><use xlink:href="#48" y="32.565"/><use xlink:href="#49" y="34.736"/><use xlink:href="#43" y="36.907"/><use xlink:href="#50" y="39.078"/><use xlink:href="#51" y="43.42"/><use xlink:href="#52" y="45.591"/><use xlink:href="#53" y="47.762"/></svg><svg x="3680"><use xlink:href="#a"/><use xlink:href="#b" x="-.004" y="52.079"/><use xlink:href="#30"/><use xlink:href="#31" y="4.342"/><use xlink:href="#40" y="8.684"/><use xlink:href="#41" y="15.197"/><use xlink:href="#42" y="17.368"/><use xlink:href="#43" y="19.539"/><use xlink:href="#44" y="21.71"/><use xlink:href="#45" y="23.881"/><use xlink:href="#46" y="26.052"/><use xlink:href="#47" y="28.223"/><use xlink:href="#48" y="30.394"/><use xlink:href="#49" y="32.565"/><use xlink:href="#43" y="34.736"/><use xlink:href="#50" y="36.907"/><use xlink:href="#51" y="41.249"/><use xlink:href="#52" y="43.42"/><use xlink:href="#53" y="45.591"/><use xlink:href="#54" y="49.933"/></svg><svg x="3760"><use xlink:href="#a"/><use xlink:href="#b" x="-.004" y="52.079"/><use xlink:href="#31" y="2.171"/><use xlink:href="#40" y="6.513"/><use xlink:href="#41" y="13.026"/><use xlink:href="#42" y="15.197"/><use xlink:href="#43" y="17.368"/><use xlink:href="#44" y="19.539"/><use xlink:href="#45" y="21.71"/><use xlink:href="#46" y="23.881"/><use xlink:href="#47" y="26.052"/><use xlink:href="#48" y="28.223"/><use xlink:href="#49" y="30.394"/><use xlink:href="#43" y="32.565"/><use xlink:href="#50" y="34.736"/><use xlink:href="#51" y="39.078"/><use xlink:href="#52" y="41.249"/><use xlink:href="#53" y="43.42"/><use xlink:href="#54" y="47.762"/></svg><svg x="3840"><use xlink:href="#a"/><use xlink:href="#b" x="-.004" y="52.079"/><use xlink:href="#31"/><use xlink:href="#40" y="4.342"/><use xlink:href="#41" y="10.855"/><use xlink:href="#42" y="13.026"/><use xlink:href="#43" y="15.197"/><use xlink:href="#44" y="17.368"/><use xlink:href="#45" y="19.539"/><use xlink:href="#46" y="21.71"/><use xlink:href="#47" y="23.881"/><use xlink:href="#48" y="26.052"/><use xlink:href="#49" y="28.223"/><use xlink:href="#43" y="30.394"/><use xlink:href="#50" y="32.565"/><use xlink:href="#51" y="36.907"/><use xlink:href="#52" y="39.078"/><use xlink:href="#53" y="41.249"/><use xlink:href="#54" y="45.591"/><text y="51.603" class="c">✨</text><text x="2.004" y="51.603" class="c">Kalpa</text><text x="8.016" y="51.603" class="c">demo</text><text x="13.026" y="51.603" class="c">complete!</text></svg></svg></g></g></svg></svg>